<svg width="25" height="24" viewBox="0 0 25 24" fill="none" xmlns="http://www.w3.org/2000/svg">
<g clip-path="url(#clip0)">
<path fill-rule="evenodd" clip-rule="evenodd" d="M12.8491 0C6.22412 0 0.849121 5.375 0.849121 12C0.849121 18.625 6.22412 24 12.8491 24C19.4611 24 24.8491 18.625 24.8491 12C24.8491 5.375 19.4611 0 12.8491 0ZM20.7751 5.531C22.2526 7.33034 23.0702 9.5809 23.0921 11.909C22.7541 11.844 19.3701 11.154 15.9601 11.584C15.8811 11.414 15.8161 11.232 15.7381 11.05C15.526 10.5494 15.3006 10.0546 15.0621 9.566C18.8361 8.03 20.5541 5.818 20.7751 5.531V5.531ZM12.8491 1.771C15.4521 1.771 17.8341 2.746 19.6431 4.347C19.4611 4.607 17.9121 6.677 14.2681 8.043C12.5881 4.959 10.7281 2.433 10.4411 2.043C11.2304 1.85869 12.0386 1.76707 12.8491 1.77V1.771ZM8.48912 2.733C8.76212 3.098 10.5841 5.636 12.2891 8.655C7.49912 9.931 3.26912 9.905 2.81412 9.905C3.47812 6.729 5.62612 4.087 8.48912 2.733ZM2.59312 12.013V11.701C3.03612 11.714 8.00712 11.779 13.1231 10.243C13.4221 10.816 13.6951 11.401 13.9551 11.987C13.8251 12.026 13.6821 12.065 13.5521 12.104C8.26812 13.809 5.45612 18.468 5.22212 18.859C3.52953 16.9805 2.59292 14.5415 2.59312 12.013V12.013ZM12.8491 22.256C10.4801 22.256 8.29412 21.449 6.56312 20.096C6.74512 19.718 8.82712 15.709 14.6061 13.692C14.6321 13.679 14.6461 13.679 14.6711 13.666C16.1161 17.401 16.7011 20.538 16.8581 21.436C15.6211 21.97 14.2681 22.256 12.8491 22.256ZM18.5631 20.499C18.4591 19.874 17.9121 16.881 16.5711 13.197C19.7861 12.69 22.5971 13.523 22.9491 13.64C22.5061 16.49 20.8661 18.95 18.5631 20.499Z" fill="white"/>
</g>
<defs>
<clipPath id="clip0">
<rect width="24" height="24" fill="white" transform="translate(0.849121)"/>
</clipPath>
</defs>
</svg>
