<svg width="25" height="24" viewBox="0 0 25 24" fill="none" xmlns="http://www.w3.org/2000/svg">
<g clip-path="url(#clip0)">
<path fill-rule="evenodd" clip-rule="evenodd" d="M12.6279 0C5.99793 0 0.62793 5.37 0.62793 12C0.62793 17.31 4.06293 21.795 8.83293 23.385C9.43293 23.49 9.65793 23.13 9.65793 22.815C9.65793 22.53 9.64293 21.585 9.64293 20.58C6.62793 21.135 5.84793 19.845 5.60793 19.17C5.47293 18.825 4.88793 17.76 4.37793 17.475C3.95793 17.25 3.35793 16.695 4.36293 16.68C5.30793 16.665 5.98293 17.55 6.20793 17.91C7.28793 19.725 9.01293 19.215 9.70293 18.9C9.80793 18.12 10.1229 17.595 10.4679 17.295C7.79793 16.995 5.00793 15.96 5.00793 11.37C5.00793 10.065 5.47293 8.985 6.23793 8.145C6.11793 7.845 5.69793 6.615 6.35793 4.965C6.35793 4.965 7.36293 4.65 9.65793 6.195C10.6179 5.925 11.6379 5.79 12.6579 5.79C13.6779 5.79 14.6979 5.925 15.6579 6.195C17.9529 4.635 18.9579 4.965 18.9579 4.965C19.6179 6.615 19.1979 7.845 19.0779 8.145C19.8429 8.985 20.3079 10.05 20.3079 11.37C20.3079 15.975 17.5029 16.995 14.8329 17.295C15.2679 17.67 15.6429 18.39 15.6429 19.515C15.6429 21.12 15.6279 22.41 15.6279 22.815C15.6279 23.13 15.8529 23.505 16.4529 23.385C18.8351 22.5807 20.9051 21.0497 22.3716 19.0074C23.8381 16.965 24.6272 14.5143 24.6279 12C24.6279 5.37 19.2579 0 12.6279 0Z" fill="white"/>
</g>
<defs>
<clipPath id="clip0">
<rect width="24" height="24" fill="white" transform="translate(0.62793)"/>
</clipPath>
</defs>
</svg>
