<svg width="25" height="24" viewBox="0 0 25 24" fill="none" xmlns="http://www.w3.org/2000/svg">
<g clip-path="url(#clip0)">
<path fill-rule="evenodd" clip-rule="evenodd" d="M7.92398 1.066C9.09698 1.012 9.47098 1 12.459 1C15.447 1 15.821 1.013 16.993 1.066C18.165 1.119 18.965 1.306 19.665 1.577C20.398 1.854 21.063 2.287 21.613 2.847C22.173 3.396 22.605 4.06 22.881 4.794C23.153 5.494 23.339 6.294 23.393 7.464C23.447 8.639 23.459 9.013 23.459 12C23.459 14.988 23.446 15.362 23.393 16.535C23.34 17.705 23.153 18.505 22.881 19.205C22.605 19.9391 22.1723 20.6042 21.613 21.154C21.063 21.714 20.398 22.146 19.665 22.422C18.965 22.694 18.165 22.88 16.995 22.934C15.821 22.988 15.447 23 12.459 23C9.47098 23 9.09698 22.987 7.92398 22.934C6.75398 22.881 5.95398 22.694 5.25398 22.422C4.51991 22.146 3.8548 21.7133 3.30498 21.154C2.74536 20.6047 2.3123 19.9399 2.03598 19.206C1.76498 18.506 1.57898 17.706 1.52498 16.536C1.47098 15.361 1.45898 14.987 1.45898 12C1.45898 9.012 1.47198 8.638 1.52498 7.466C1.57798 6.294 1.76498 5.494 2.03598 4.794C2.31271 4.06008 2.7461 3.39531 3.30598 2.846C3.85502 2.2865 4.51946 1.85344 5.25298 1.577C5.95298 1.306 6.75298 1.12 7.92298 1.066H7.92398ZM16.904 3.046C15.744 2.993 15.396 2.982 12.459 2.982C9.52198 2.982 9.17398 2.993 8.01398 3.046C6.94098 3.095 6.35898 3.274 5.97098 3.425C5.45798 3.625 5.09098 3.862 4.70598 4.247C4.34103 4.60205 4.06016 5.03428 3.88398 5.512C3.73298 5.9 3.55398 6.482 3.50498 7.555C3.45198 8.715 3.44098 9.063 3.44098 12C3.44098 14.937 3.45198 15.285 3.50498 16.445C3.55398 17.518 3.73298 18.1 3.88398 18.488C4.05998 18.965 4.34098 19.398 4.70598 19.753C5.06098 20.118 5.49398 20.399 5.97098 20.575C6.35898 20.726 6.94098 20.905 8.01398 20.954C9.17398 21.007 9.52098 21.018 12.459 21.018C15.397 21.018 15.744 21.007 16.904 20.954C17.977 20.905 18.559 20.726 18.947 20.575C19.46 20.375 19.827 20.138 20.212 19.753C20.577 19.398 20.858 18.965 21.034 18.488C21.185 18.1 21.364 17.518 21.413 16.445C21.466 15.285 21.477 14.937 21.477 12C21.477 9.063 21.466 8.715 21.413 7.555C21.364 6.482 21.185 5.9 21.034 5.512C20.834 4.999 20.597 4.632 20.212 4.247C19.8569 3.88207 19.4247 3.60121 18.947 3.425C18.559 3.274 17.977 3.095 16.904 3.046ZM11.054 15.391C11.8386 15.7176 12.7124 15.7617 13.5259 15.5157C14.3395 15.2697 15.0424 14.7489 15.5146 14.0422C15.9868 13.3356 16.199 12.4869 16.115 11.6411C16.031 10.7953 15.656 10.005 15.054 9.405C14.6702 9.02148 14.2062 8.72781 13.6953 8.54515C13.1844 8.36248 12.6394 8.29536 12.0995 8.34862C11.5595 8.40187 11.0381 8.57418 10.5728 8.85313C10.1074 9.13208 9.70973 9.51074 9.40829 9.96185C9.10685 10.413 8.90917 10.9253 8.8295 11.462C8.74983 11.9986 8.79014 12.5463 8.94752 13.0655C9.10491 13.5847 9.37547 14.0626 9.73971 14.4647C10.1039 14.8668 10.5528 15.1832 11.054 15.391ZM8.46098 8.002C8.98601 7.47697 9.6093 7.0605 10.2953 6.77636C10.9813 6.49222 11.7165 6.34597 12.459 6.34597C13.2015 6.34597 13.9367 6.49222 14.6227 6.77636C15.3087 7.0605 15.932 7.47697 16.457 8.002C16.982 8.52702 17.3985 9.15032 17.6826 9.8363C17.9668 10.5223 18.113 11.2575 18.113 12C18.113 12.7425 17.9668 13.4777 17.6826 14.1637C17.3985 14.8497 16.982 15.473 16.457 15.998C15.3966 17.0583 13.9585 17.654 12.459 17.654C10.9594 17.654 9.52132 17.0583 8.46098 15.998C7.40065 14.9377 6.80496 13.4995 6.80496 12C6.80496 10.5005 7.40065 9.06234 8.46098 8.002ZM19.367 7.188C19.4971 7.06527 19.6012 6.91768 19.6733 6.75397C19.7453 6.59027 19.7838 6.41377 19.7864 6.23493C19.789 6.05609 19.7557 5.87855 19.6885 5.71281C19.6212 5.54707 19.5214 5.39651 19.3949 5.27004C19.2685 5.14357 19.1179 5.04376 18.9522 4.97652C18.7864 4.90928 18.6089 4.87598 18.4301 4.87858C18.2512 4.88119 18.0747 4.91965 17.911 4.9917C17.7473 5.06374 17.5997 5.1679 17.477 5.298C17.2383 5.55103 17.1076 5.88712 17.1127 6.23493C17.1178 6.58274 17.2582 6.91488 17.5041 7.16084C17.7501 7.40681 18.0822 7.54723 18.4301 7.5523C18.7779 7.55737 19.114 7.42669 19.367 7.188Z" fill="white"/>
</g>
<defs>
<clipPath id="clip0">
<rect width="24" height="24" fill="white" transform="translate(0.458984)"/>
</clipPath>
</defs>
</svg>
