<svg width="161" height="25" viewBox="0 0 161 25" fill="none" xmlns="http://www.w3.org/2000/svg">
<path d="M12.132 21L5.524 12.32V21H0.736V1.344H5.524V9.968L12.076 1.344H17.704L10.088 10.976L17.984 21H12.132ZM35.6874 5.376V21H30.8994V18.872C30.4141 19.5627 29.7514 20.1227 28.9114 20.552C28.0901 20.9627 27.1754 21.168 26.1674 21.168C24.9728 21.168 23.9181 20.9067 23.0034 20.384C22.0888 19.8427 21.3794 19.068 20.8754 18.06C20.3714 17.052 20.1194 15.8667 20.1194 14.504V5.376H24.8794V13.86C24.8794 14.9053 25.1501 15.7173 25.6914 16.296C26.2328 16.8747 26.9608 17.164 27.8754 17.164C28.8088 17.164 29.5461 16.8747 30.0874 16.296C30.6288 15.7173 30.8994 14.9053 30.8994 13.86V5.376H35.6874ZM47.8346 16.94V21H45.3986C43.6626 21 42.3093 20.58 41.3386 19.74C40.368 18.8813 39.8826 17.4907 39.8826 15.568V9.352H37.9786V5.376H39.8826V1.568H44.6706V5.376H47.8066V9.352H44.6706V15.624C44.6706 16.0907 44.7826 16.4267 45.0066 16.632C45.2306 16.8373 45.604 16.94 46.1266 16.94H47.8346ZM65.9296 5.376V21H61.1416V18.872C60.6563 19.5627 59.9936 20.1227 59.1536 20.552C58.3323 20.9627 57.4176 21.168 56.4096 21.168C55.215 21.168 54.1603 20.9067 53.2456 20.384C52.331 19.8427 51.6216 19.068 51.1176 18.06C50.6136 17.052 50.3616 15.8667 50.3616 14.504V5.376H55.1216V13.86C55.1216 14.9053 55.3923 15.7173 55.9336 16.296C56.475 16.8747 57.203 17.164 58.1176 17.164C59.051 17.164 59.7883 16.8747 60.3296 16.296C60.871 15.7173 61.1416 14.9053 61.1416 13.86V5.376H65.9296ZM74.1568 7.588C74.6048 6.86 75.2488 6.272 76.0888 5.824C76.9288 5.376 77.8901 5.152 78.9728 5.152C80.2608 5.152 81.4275 5.47867 82.4728 6.132C83.5181 6.78533 84.3395 7.71867 84.9368 8.932C85.5528 10.1453 85.8608 11.5547 85.8608 13.16C85.8608 14.7653 85.5528 16.184 84.9368 17.416C84.3395 18.6293 83.5181 19.572 82.4728 20.244C81.4275 20.8973 80.2608 21.224 78.9728 21.224C77.8715 21.224 76.9101 21.0093 76.0888 20.58C75.2675 20.132 74.6235 19.544 74.1568 18.816V21H69.3688V0.28H74.1568V7.588ZM80.9888 13.16C80.9888 11.9653 80.6528 11.032 79.9808 10.36C79.3275 9.66933 78.5155 9.324 77.5448 9.324C76.5928 9.324 75.7808 9.66933 75.1088 10.36C74.4555 11.0507 74.1288 11.9933 74.1288 13.188C74.1288 14.3827 74.4555 15.3253 75.1088 16.016C75.7808 16.7067 76.5928 17.052 77.5448 17.052C78.4968 17.052 79.3088 16.7067 79.9808 16.016C80.6528 15.3067 80.9888 14.3547 80.9888 13.16ZM103.801 5.376V21H99.0127V18.872C98.5274 19.5627 97.8647 20.1227 97.0247 20.552C96.2034 20.9627 95.2887 21.168 94.2807 21.168C93.0861 21.168 92.0314 20.9067 91.1167 20.384C90.2021 19.8427 89.4927 19.068 88.9887 18.06C88.4847 17.052 88.2327 15.8667 88.2327 14.504V5.376H92.9927V13.86C92.9927 14.9053 93.2634 15.7173 93.8047 16.296C94.3461 16.8747 95.0741 17.164 95.9887 17.164C96.9221 17.164 97.6594 16.8747 98.2007 16.296C98.7421 15.7173 99.0127 14.9053 99.0127 13.86V5.376H103.801Z" fill="white"/>
<path d="M119.28 9.184V13.16H106.96V9.184H119.28ZM137.482 24.36L134.962 20.972C134.215 21.1213 133.487 21.196 132.778 21.196C130.93 21.196 129.231 20.7667 127.682 19.908C126.151 19.0493 124.929 17.8547 124.014 16.324C123.118 14.7747 122.67 13.0387 122.67 11.116C122.67 9.19333 123.118 7.46667 124.014 5.936C124.929 4.40533 126.151 3.21067 127.682 2.352C129.231 1.49333 130.93 1.064 132.778 1.064C134.626 1.064 136.315 1.49333 137.846 2.352C139.395 3.21067 140.609 4.40533 141.486 5.936C142.382 7.46667 142.83 9.19333 142.83 11.116C142.83 12.796 142.485 14.336 141.794 15.736C141.122 17.1173 140.179 18.2653 138.966 19.18L143.278 24.36H137.482ZM127.57 11.116C127.57 12.852 128.037 14.2427 128.97 15.288C129.922 16.3147 131.191 16.828 132.778 16.828C134.346 16.828 135.597 16.3053 136.53 15.26C137.482 14.2147 137.958 12.8333 137.958 11.116C137.958 9.38 137.482 7.99867 136.53 6.972C135.597 5.92667 134.346 5.404 132.778 5.404C131.191 5.404 129.922 5.91733 128.97 6.944C128.037 7.97067 127.57 9.36133 127.57 11.116ZM160.977 5.376V21H156.189V18.872C155.703 19.5627 155.041 20.1227 154.201 20.552C153.379 20.9627 152.465 21.168 151.457 21.168C150.262 21.168 149.207 20.9067 148.293 20.384C147.378 19.8427 146.669 19.068 146.165 18.06C145.661 17.052 145.409 15.8667 145.409 14.504V5.376H150.169V13.86C150.169 14.9053 150.439 15.7173 150.981 16.296C151.522 16.8747 152.25 17.164 153.165 17.164C154.098 17.164 154.835 16.8747 155.377 16.296C155.918 15.7173 156.189 14.9053 156.189 13.86V5.376H160.977Z" fill="#FFCF89"/>
</svg>
