<svg width="32" height="32" viewBox="0 0 32 32" fill="none" xmlns="http://www.w3.org/2000/svg">
<path fill-rule="evenodd" clip-rule="evenodd" d="M15.9944 17.9759L16.2179 17.953V17.9763C16.5095 17.9875 16.8052 18.0407 17.0762 18.1459C17.0786 18.1469 17.081 18.1478 17.0834 18.1488L17.5723 18.3456L15.9994 18.9518L14.5656 18.3992L15.012 18.1936C15.0348 18.1831 15.0578 18.173 15.081 18.1633C15.3659 18.0445 15.6801 17.9853 15.988 17.9761C15.9901 17.976 15.9923 17.976 15.9944 17.9759L15.9944 17.9759ZM26.9094 21.9533C26.9084 21.9694 26.9093 21.9884 26.9089 22.0032L26.878 23.145L18.6794 19.9848L22.9698 18.2781L23.0653 18.4038C23.381 18.8196 23.7397 19.2111 24.1398 19.5471C24.7326 20.0451 25.4408 20.3906 26.1945 20.5646C26.3725 20.6057 26.5557 20.7348 26.6719 20.8718C26.9257 21.1707 26.9661 21.5672 26.911 21.9425L26.9094 21.9533L26.9094 21.9533ZM13.884 20.2094L15.4421 20.8292L6.10007 24.5454L6.06766 24.5476C5.79549 24.5662 5.52333 24.5112 5.32444 24.3128C5.18577 24.1744 5.11013 23.992 5.08009 23.8008L5.0542 23.6359L5.20969 23.5752C8.07352 22.457 10.9395 21.3444 13.8082 20.2386L13.8841 20.2094H13.884ZM5.0894 21.9533L5.08784 21.9425C5.0327 21.5672 5.07313 21.1707 5.32685 20.8718C5.44315 20.7348 5.62626 20.6057 5.80427 20.5646C6.55799 20.3906 7.26618 20.0451 7.85901 19.5471C8.25903 19.2111 8.61785 18.8196 8.9335 18.4038L9.02894 18.2781L13.3194 19.9848L12.8251 20.1756C10.3471 21.1319 7.87079 22.0926 5.39638 23.0581L5.12133 23.1654L5.08994 22.0032C5.08953 21.9884 5.09044 21.9694 5.0894 21.9533L5.0894 21.9533ZM13.7672 19.7196L9.03627 17.8376C9.03181 17.8359 9.02734 17.8341 9.02288 17.8323L6.65567 16.8906C6.32924 16.7869 5.93919 16.5839 5.67262 16.3764C5.40024 16.1643 5.16236 15.8814 5.12321 15.5265L5.08581 15.1873L14.208 18.7035C14.2193 18.7079 14.2306 18.7122 14.242 18.7166L15.8943 19.3535C15.9151 19.3615 15.9358 19.3695 15.9566 19.3775L18.0389 20.1816C18.05 20.1855 18.0603 20.1884 18.0713 20.1926L26.9446 23.6129L26.9225 23.7755C26.8962 23.9693 26.8241 24.1564 26.6874 24.2995C26.4882 24.5082 26.2103 24.5666 25.9313 24.5476L25.8988 24.5454L16.1104 20.6517C16.0872 20.6424 16.064 20.6332 16.0408 20.624L13.7673 19.7196L13.7672 19.7196ZM25.7711 15.6274C25.7788 15.6245 25.7864 15.6215 25.7941 15.6186L26.9131 15.1873L26.8757 15.5265C26.8682 15.594 26.8533 15.6604 26.8315 15.7247C26.7413 15.9919 26.5407 16.2079 26.3208 16.377C26.1351 16.5197 25.9257 16.6376 25.7136 16.7365C25.5931 16.7927 25.4749 16.8384 25.3521 16.8873L22.98 17.8308C22.9729 17.8336 22.9658 17.8364 22.9587 17.8393L18.1133 19.7666L16.5731 19.1729L17.9094 18.6578C17.926 18.6514 17.9426 18.645 17.9592 18.6386L25.7712 15.6274L25.7711 15.6274ZM16.3064 17.3163C16.449 16.8227 16.6984 16.3865 17.0491 16.0114C17.7383 15.2742 18.7332 14.8609 19.6893 14.5995C20.1966 14.4608 20.7138 14.359 21.2323 14.2726C21.6863 14.197 22.1421 14.1349 22.5964 14.0621C22.8874 14.0155 23.2125 13.9642 23.4924 13.8718C23.5437 13.8549 23.7612 13.7749 23.7784 13.7143C23.7788 13.713 23.7789 13.7115 23.7789 13.7101V5.52374L25.5822 6.80244L25.5039 15.2882L17.9303 18.2075L17.8356 18.1228C17.6598 17.9655 17.4461 17.8463 17.2272 17.7606C16.9894 17.6675 16.7358 17.609 16.4823 17.5802L16.2381 17.5524L16.3064 17.3162L16.3064 17.3163ZM15.5206 17.6088C15.3166 17.6448 15.1143 17.7011 14.9228 17.7809C14.7011 17.8733 14.4855 18.0019 14.3137 18.1712L14.2182 18.2652L6.42109 15.2598L6.41567 6.80309L8.21993 5.52368V13.7133C8.21993 13.8378 8.32759 13.9212 8.44693 13.9205C8.61974 13.9195 8.80197 13.9329 8.97418 13.9458C9.30858 13.9708 9.64278 14.0076 9.97485 14.0541C10.887 14.1818 11.8155 14.3861 12.6803 14.7053C13.9476 15.1731 15.2731 15.9711 15.6835 17.3449L15.7502 17.5682L15.5206 17.6087L15.5206 17.6088Z" fill="white"/>
<path fill-rule="evenodd" clip-rule="evenodd" d="M15.7929 9.53463L15.7919 16.4669L15.4248 16.0259C14.0032 14.3183 10.9352 13.6783 8.82775 13.5284L8.63485 13.5147V5.34671L8.86178 5.36787C10.8102 5.54968 13.397 6.04749 14.8532 7.48532C15.2006 7.8283 15.4937 8.23844 15.6616 8.69938C15.7288 8.88397 15.7914 9.12365 15.7929 9.32273L15.7945 9.53465L15.7929 9.53463L15.7929 9.53463ZM16.205 9.36743V9.32547C16.2054 9.13026 16.2675 8.89092 16.3326 8.70981C16.4984 8.2488 16.7898 7.83804 17.1357 7.49445C18.5903 6.04937 21.185 5.54993 23.1362 5.36785L23.3631 5.34668V13.5152L23.1707 13.5293C21.0631 13.6837 18.0006 14.3277 16.5705 16.0247L16.204 16.4596L16.205 9.3677C16.205 9.36761 16.205 9.3675 16.205 9.3674L16.205 9.36743ZM4.83788 24.9906H27.16C27.6185 24.9906 27.9905 25.3626 27.9905 25.8211C27.9905 26.2797 27.6185 26.6517 27.16 26.6517H4.83788C4.37934 26.6517 4.00732 26.2797 4.00732 25.8211C4.00732 25.3626 4.37933 24.9906 4.83788 24.9906Z" fill="white"/>
</svg>
