<svg width="21" height="22" viewBox="0 0 21 22" fill="none" xmlns="http://www.w3.org/2000/svg">
<path fill-rule="evenodd" clip-rule="evenodd" d="M15.3115 12.6448C15.0495 12.5138 13.7649 11.8826 13.5258 11.7946C13.2866 11.7076 13.1125 11.6645 12.9376 11.9265C12.7635 12.1868 12.2632 12.7758 12.1111 12.9499C11.9581 13.1249 11.806 13.146 11.5449 13.0159C11.2838 12.884 10.4415 12.6088 9.4436 11.719C8.66726 11.0262 8.14237 10.1707 7.99027 9.90874C7.83816 9.64762 7.97356 9.50606 8.10457 9.37594C8.22238 9.259 8.36569 9.07085 8.49669 8.91875C8.6277 8.76577 8.67078 8.65675 8.75782 8.48178C8.84574 8.3077 8.80178 8.15559 8.73584 8.02459C8.67078 7.89359 8.14853 6.60731 7.93048 6.08417C7.71859 5.57511 7.50318 5.64457 7.34317 5.63578C7.19019 5.62874 7.0161 5.62699 6.84202 5.62699C6.66793 5.62699 6.38483 5.69205 6.14568 5.95405C5.90566 6.21518 5.2313 6.84733 5.2313 8.13362C5.2313 9.41902 6.16678 10.6613 6.29779 10.8363C6.42879 11.0104 8.13973 13.6498 10.7607 14.7813C11.3849 15.0504 11.8711 15.2113 12.25 15.3308C12.876 15.5304 13.4458 15.5023 13.8959 15.4346C14.3971 15.3598 15.4416 14.8024 15.6596 14.1923C15.8768 13.5821 15.8768 13.059 15.8117 12.9499C15.7467 12.8409 15.5726 12.7758 15.3106 12.6448H15.3115ZM10.5444 19.1536H10.5409C8.98415 19.1539 7.45603 18.7355 6.11667 17.9421L5.80015 17.7539L2.51015 18.6173L3.38848 15.41L3.18186 15.0811C2.31157 13.6958 1.851 12.0925 1.85338 10.4565C1.85513 5.66479 5.75355 1.76637 10.5479 1.76637C12.869 1.76637 15.0512 2.67196 16.6918 4.31432C17.501 5.12019 18.1424 6.07852 18.5788 7.13386C19.0153 8.18921 19.2381 9.32062 19.2345 10.4626C19.2327 15.2543 15.3343 19.1536 10.5444 19.1536ZM17.9403 3.06672C16.9716 2.09161 15.819 1.31845 14.5493 0.792029C13.2796 0.265614 11.918 -0.00358388 10.5435 3.60279e-05C4.78115 3.60279e-05 0.0896795 4.69063 0.0879211 10.4556C0.0870419 12.2984 0.56797 14.0973 1.48323 15.6825L0 21.1011L5.54254 19.6469C7.07578 20.4822 8.79395 20.9199 10.54 20.92H10.5444C16.3067 20.92 20.9982 16.2294 20.9999 10.4635C21.0042 9.08956 20.736 7.72839 20.2108 6.45875C19.6856 5.18911 18.9139 4.0362 17.9403 3.06672Z" fill="white"/>
</svg>
